<?xml version="1.0" encoding="iso-8859-1"?>
<!-- Generator: Adobe Illustrator 19.0.0, SVG Export Plug-In . SVG Version: 6.00 Build 0)  -->
<svg version="1.1" id="Capa_1" xmlns="http://www.w3.org/2000/svg" xmlns:xlink="http://www.w3.org/1999/xlink" x="0px" y="0px"
	 viewBox="0 0 496.488 496.488" style="enable-background:new 0 0 496.488 496.488;" xml:space="preserve">
<g>
	<g>
		<path d="M438.222,294.904l-3.744-14.984c-2.272-9.072-10.208-15.44-19.48-15.848L401.766,98.616
			c-1.184-14.84-10.432-27.712-24.12-33.576l-33.528-14.368c0.048-0.88,0.128-1.744,0.128-2.624
			c0-12.488-4.864-24.224-13.688-33.048C320.886,5.328,308.03,0,294.35,0h-92.208c-13.672,0-26.536,5.328-36.2,15
			c-8.832,8.824-13.696,20.56-13.696,33.048c0,0.88,0.08,1.752,0.128,2.624L118.846,65.04
			c-13.688,5.864-22.928,18.736-24.112,33.576L81.494,264.08c-9.264,0.4-17.208,6.768-19.48,15.848l-3.744,14.984
			c-1.784,7.128,0.336,14.776,5.528,19.96c2.944,2.952,6.664,4.936,10.744,5.752l66,13.2l-38.4,153.6l154.104,9.064v-16.944
			l138.28-8.128l-37.12-137.888l64.544-12.912c4.08-0.816,7.8-2.8,10.744-5.752C437.886,309.68,439.998,302.032,438.222,294.904z
			 M385.814,99.888l13.28,165.952l-56.528,12.56l-6.32-23.456V225.04l37.808-143.664C380.686,85.32,385.182,92.056,385.814,99.888z
			 M340.446,66.504l18.848,8.08L322.078,216h-45.704L340.446,66.504z M237.846,264h0.96l-13.024,78.136l-14.984-3.744L237.846,264z
			 M224.246,248h-48v-16h48V248z M207.374,62.224C215.19,60.04,231.846,56,248.246,56c16.4,0,33.056,4.04,40.872,6.224
			l-40.872,134.304L207.374,62.224z M257.91,264l28.744,122.152l-15.464,3.864L257.182,264H257.91z M320.246,232v16h-48v-16H320.246
			z M177.246,26.312C183.902,19.664,192.742,16,202.142,16h92.208c9.4,0,18.24,3.664,24.888,10.312
			c5.808,5.808,9.008,13.52,9.008,21.736c0,4.184-0.832,8.264-2.488,12.112l-66.552,155.28l52.688-173.112l-15.304-4.656
			l-2.808,9.232C285.214,44.48,266.886,40,248.246,40s-36.968,4.48-45.536,6.904l-2.808-9.232l-15.304,4.656l52.688,173.112
			L170.734,60.16c-1.656-3.848-2.488-7.928-2.488-12.112C168.246,39.832,171.446,32.12,177.246,26.312z M156.054,66.504L220.118,216
			h-45.96l-36.96-141.416L156.054,66.504z M110.686,99.888c0.624-7.832,5.128-14.568,11.752-18.52l37.808,143.664v29.984
			l-5.872,23.488L97.406,265.84L110.686,99.888z M77.678,304.928c-0.976-0.192-1.856-0.672-2.568-1.376
			c-1.24-1.24-1.744-3.064-1.32-4.768l3.744-14.984c0.56-2.24,2.56-3.808,4.864-3.808h4.408c0.36,0,0.736,0.04,1.088,0.12
			l62.584,13.912l-6.064,24.256L77.678,304.928z M240.246,479.52l-117.896-6.936L174.494,264h46.328l-31.128,85.608l49.016,12.256
			l1.536-9.208V479.52z M240.246,248v-16h16l0.008,16h-0.008H240.246z M373.966,456.592l-117.72,6.928v-63.064l1.056,9.528
			l48.536-12.136L274.35,264h48.04L373.966,456.592z M421.382,303.552c-0.704,0.704-1.592,1.176-2.568,1.376l-65.576,13.112
			l-6.512-24.176l61.84-13.744c0.368-0.08,0.744-0.12,1.112-0.12h4.408c2.304,0,4.312,1.56,4.864,3.808l3.744,14.984
			C423.118,300.488,422.614,302.32,421.382,303.552z"/>
	</g>
</g>
<g>
</g>
<g>
</g>
<g>
</g>
<g>
</g>
<g>
</g>
<g>
</g>
<g>
</g>
<g>
</g>
<g>
</g>
<g>
</g>
<g>
</g>
<g>
</g>
<g>
</g>
<g>
</g>
<g>
</g>
</svg>
