<svg height="512pt" viewBox="-33 0 512 512.00001" width="512pt" xmlns="http://www.w3.org/2000/svg"><path d="m392.535156 503.464844v-34.132813c0-14.136719-11.464844-25.597656-25.601562-25.597656h-18.679688c18.101563-14.546875 28.632813-36.511719 28.636719-59.734375v-34.132812c-.003906-23.222657-10.535156-45.1875-28.636719-59.734376h45.703125v34.132813c0 4.714844 3.820313 8.535156 8.535157 8.535156h34.132812c4.710938 0 8.53125-3.820312 8.53125-8.535156v-42.664063c-.027344-23.554687-19.113281-42.640624-42.664062-42.667968h-76.800782v-25.601563c0-4.710937-3.820312-8.53125-8.53125-8.53125h-153.601562c-4.714844 0-8.53125 3.820313-8.53125 8.535157 0 2.261718.898437 4.429687 2.496094 6.03125l31.636718 31.632812v26.546875c-30.644531 10.855469-51.144531 39.8125-51.203125 72.320313v34.132812c.007813 23.222656 10.539063 45.1875 28.640625 59.734375h-45.707031v-256h246.042969c14.136718 0 25.601562-11.460937 25.601562-25.601563v-153.597656c0-4.714844-3.820312-8.535156-8.535156-8.535156h-375.464844c-4.714844 0-8.535156 3.820312-8.535156 8.535156v494.929688c0 4.714844 3.820312 8.535156 8.535156 8.535156h375.464844c4.714844 0 8.535156-3.820312 8.535156-8.535156zm-51.203125-332.796875h-186.308593v-8.535157c0-4.710937 3.820312-8.53125 8.535156-8.53125h169.242187c4.710938 0 8.53125 3.820313 8.53125 8.53125zm-220.441406-153.601563h254.578125v145.066406c0 4.714844-3.824219 8.535157-8.535156 8.535157h-8.535156v-8.535157c0-14.136718-11.460938-25.601562-25.597657-25.601562h-169.242187c-14.140625 0-25.601563 11.464844-25.601563 25.601562v8.535157h-17.066406zm204.800781 238.933594h76.800782c14.136718 0 25.601562 11.460938 25.601562 25.601562v34.132813h-17.070312v-34.132813c0-4.714843-3.820313-8.535156-8.53125-8.535156h-76.800782zm-141.535156-34.132812h124.46875v17.066406h-107.402344zm124.46875 34.132812v17.066406h-102.398438v-17.066406zm-153.601562 93.867188c.039062-32.976563 26.761718-59.695313 59.734374-59.734376h85.335938c32.972656.039063 59.695312 26.757813 59.730469 59.734376v8.53125h-204.800781zm0 34.132812v-8.53125h204.800781v8.53125c-.035157 32.972656-26.757813 59.695312-59.734375 59.734375h-85.332032c-32.972656-.039063-59.695312-26.761719-59.734374-59.734375zm220.445312 110.933594h-358.402344v-477.867188h86.757813v435.199219c0 4.714844 3.820312 8.535156 8.535156 8.535156h254.574219c4.710937 0 8.53125 3.820313 8.53125 8.53125v25.601563zm0 0"/><path d="m247.46875 110.933594c14.136719 0 25.597656-11.460938 25.597656-25.601563 0-14.136719-11.460937-25.597656-25.597656-25.597656-14.140625 0-25.601562 11.460937-25.601562 25.597656 0 14.140625 11.460937 25.601563 25.601562 25.601563zm0-34.132813c4.710938 0 8.53125 3.820313 8.53125 8.53125 0 4.714844-3.820312 8.535157-8.53125 8.535157-4.714844 0-8.535156-3.820313-8.535156-8.535157 0-4.710937 3.820312-8.53125 8.535156-8.53125zm0 0"/><path d="m162.132812 110.933594c14.140626 0 25.601563-11.460938 25.601563-25.601563 0-14.136719-11.460937-25.597656-25.601563-25.597656-14.136718 0-25.597656 11.460937-25.597656 25.597656 0 14.140625 11.460938 25.601563 25.597656 25.601563zm0-34.132813c4.714844 0 8.535157 3.820313 8.535157 8.53125 0 4.714844-3.820313 8.535157-8.535157 8.535157-4.710937 0-8.53125-3.820313-8.53125-8.535157 0-4.710937 3.820313-8.53125 8.53125-8.53125zm0 0"/><path d="m332.800781 110.933594c14.136719 0 25.597657-11.460938 25.597657-25.601563 0-14.136719-11.460938-25.597656-25.597657-25.597656-14.140625 0-25.601562 11.460937-25.601562 25.597656 0 14.140625 11.460937 25.601563 25.601562 25.601563zm0-34.132813c4.710938 0 8.53125 3.820313 8.53125 8.53125 0 4.714844-3.820312 8.535157-8.53125 8.535157-4.714843 0-8.535156-3.820313-8.535156-8.535157 0-4.710937 3.820313-8.53125 8.535156-8.53125zm0 0"/><path d="m76.800781 34.132812h-34.132812c-4.714844 0-8.535157 3.820313-8.535157 8.535157v409.597656c0 4.714844 3.820313 8.535156 8.535157 8.535156h34.132812c4.710938 0 8.53125-3.820312 8.53125-8.535156v-409.597656c0-4.714844-3.820312-8.535157-8.53125-8.535157zm-8.535156 409.601563h-17.066406v-51.199219h17.066406zm0-68.265625h-17.066406v-51.203125h17.066406zm0-68.269531h-17.066406v-51.199219h17.066406zm0-68.265625h-17.066406v-51.199219h17.066406zm0-68.265625h-17.066406v-51.203125h17.066406zm0-68.269531h-17.066406v-51.199219h17.066406zm0 0"/></svg>