<?xml version="1.0" encoding="iso-8859-1"?>
<!-- Generator: Adobe Illustrator 19.0.0, SVG Export Plug-In . SVG Version: 6.00 Build 0)  -->
<svg version="1.1" id="Layer_1" xmlns="http://www.w3.org/2000/svg" xmlns:xlink="http://www.w3.org/1999/xlink" x="0px" y="0px"
	 viewBox="0 0 512 512" style="enable-background:new 0 0 512 512;" xml:space="preserve">
<g>
	<g>
		<path d="M115.073,30.416C51.622,30.416,0,82.038,0,145.489v81.616v27.881v5.069c0,11.017,7.849,20.234,18.25,22.353V384.76
			c0,53.389,43.435,96.824,96.824,96.824c53.389,0,96.824-43.435,96.824-96.824V282.408c10.4-2.12,18.25-11.337,18.25-22.353v-5.069
			v-27.881v-81.616C230.147,82.038,178.525,30.416,115.073,30.416z M196.689,384.76c0,45.003-36.613,81.616-81.616,81.616
			c-45.003,0-81.616-36.613-81.616-81.616V282.867h15.208V384.76c0,36.618,29.79,66.408,66.408,66.408
			c36.618,0,66.408-29.79,66.408-66.408V282.867h15.208V384.76z M63.873,384.76V282.867h102.4V384.76
			c0,28.232-22.968,51.2-51.2,51.2S63.873,412.992,63.873,384.76z M214.939,254.986v5.069c0,4.193-3.411,7.604-7.604,7.604h-25.853
			H48.665H22.812c-4.193,0-7.604-3.411-7.604-7.604v-5.069v-12.673h199.731V254.986z M214.939,227.105H15.208v-81.616
			c0-55.066,44.799-99.865,99.865-99.865c55.066,0,99.865,44.8,99.865,99.865V227.105z"/>
	</g>
</g>
<g>
	<g>
		<path d="M396.927,30.416c-63.452,0-115.073,51.622-115.073,115.073v81.616v27.881v5.069c0,11.017,7.849,20.234,18.25,22.353
			V384.76c0,53.389,43.435,96.824,96.824,96.824s96.824-43.435,96.824-96.824V282.408c10.4-2.12,18.25-11.337,18.25-22.353v-5.069
			v-27.881v-81.616C512,82.038,460.378,30.416,396.927,30.416z M478.543,384.76c0,45.003-36.613,81.616-81.616,81.616
			s-81.616-36.613-81.616-81.616V282.867h15.208V384.76c0,36.618,29.79,66.408,66.408,66.408c36.618,0,66.408-29.79,66.408-66.408
			V282.867h15.208V384.76z M345.727,384.76V282.867h102.4V384.76c0,28.232-22.968,51.2-51.2,51.2S345.727,412.992,345.727,384.76z
			 M496.792,254.986v5.069c0,4.193-3.411,7.604-7.604,7.604h-25.853H330.519h-25.853c-4.193,0-7.604-3.411-7.604-7.604v-5.069
			v-12.673h199.731V254.986z M496.792,227.105H297.061v-81.616c0-55.066,44.799-99.865,99.865-99.865s99.865,44.8,99.865,99.865
			V227.105z"/>
	</g>
</g>
<g>
</g>
<g>
</g>
<g>
</g>
<g>
</g>
<g>
</g>
<g>
</g>
<g>
</g>
<g>
</g>
<g>
</g>
<g>
</g>
<g>
</g>
<g>
</g>
<g>
</g>
<g>
</g>
<g>
</g>
</svg>
